<svg xmlns="http://www.w3.org/2000/svg" viewBox="0 0 300 300" width="300" height="300">
  <!-- Globe base -->
  <circle cx="150" cy="150" r="148" fill="#757b86"/>

  <!-- Landmass: Eurasia (one connected path approximating Europe+Asia) -->
  <path d="
    M88,52 Q105,42 128,40 Q152,38 172,44 Q195,40 218,50
    Q242,58 255,75 Q265,90 260,108 Q270,122 265,140
    Q272,155 265,172 Q258,188 245,192 Q235,200 222,195
    Q212,202 200,198 Q190,204 178,200 Q166,196 158,204
    Q150,212 140,208 Q130,204 122,212 Q112,220 102,213
    Q92,206 94,190 Q96,175 86,163 Q76,152 80,136
    Q84,120 74,107 Q65,94 70,78 Q76,63 88,52 Z
  " fill="#8b1c1c" opacity="0.92"/>

  <!-- Africa -->
  <path d="
    M118,205 Q130,198 143,205 Q152,212 157,228
    Q162,246 160,265 Q157,280 150,288 Q142,280 136,264
    Q128,246 120,228 Q114,214 118,205 Z
  " fill="#8b1c1c" opacity="0.9"/>

  <!-- Arabian peninsula -->
  <path d="M192,182 Q204,178 212,190 Q216,204 208,216 Q200,222 194,212 Q190,200 192,182 Z"
        fill="#8b1c1c" opacity="0.88"/>

  <!-- ══ ASHUR EAGLE ══ -->

  <!-- Wing base bar (left) -->
  <path d="M134,175 C110,172 82,168 56,166 C38,165 22,167 14,172
           C22,177 38,179 56,179 C82,178 110,177 134,180 Z"
        fill="#b89200"/>

  <!-- Left wing feathers (4 upward-pointing primary feathers) -->
  <path d="M128,176 L118,153 L108,176 Z" fill="#d4a800"/>
  <path d="M108,176 L96,149 L84,176 Z" fill="#c8a000"/>
  <path d="M84,176 L70,147 L56,176 Z" fill="#c8a000"/>
  <path d="M56,176 L42,150 L28,176 Z" fill="#c8a000"/>

  <!-- Wing base bar (right, mirror) -->
  <path d="M166,175 C190,172 218,168 244,166 C262,165 278,167 286,172
           C278,177 262,179 244,179 C218,178 190,177 166,180 Z"
        fill="#b89200"/>

  <!-- Right wing feathers (mirror) -->
  <path d="M172,176 L182,153 L192,176 Z" fill="#d4a800"/>
  <path d="M192,176 L204,149 L216,176 Z" fill="#c8a000"/>
  <path d="M216,176 L230,147 L244,176 Z" fill="#c8a000"/>
  <path d="M244,176 L258,150 L272,176 Z" fill="#c8a000"/>

  <!-- Central disc ring -->
  <circle cx="150" cy="174" r="17" fill="#c8a000"/>
  <circle cx="150" cy="174" r="12" fill="#8b6800"/>
  <circle cx="150" cy="174" r="7" fill="#c8a000"/>

  <!-- Flame on top -->
  <path d="M144,158 Q148,142 150,136 Q152,142 156,158 Q153,162 150,163 Q147,162 144,158 Z" fill="#e8c000"/>
  <path d="M147,153 Q150,142 153,153 Q151,157 150,158 Q149,157 147,153 Z" fill="#ff9900"/>

  <!-- Stars below -->
  <circle cx="133" cy="196" r="2.2" fill="#d4a800"/>
  <circle cx="141" cy="198" r="2.2" fill="#d4a800"/>
  <circle cx="150" cy="199" r="2.2" fill="#d4a800"/>
  <circle cx="159" cy="198" r="2.2" fill="#d4a800"/>
  <circle cx="167" cy="196" r="2.2" fill="#d4a800"/>

  <!-- Globe border -->
  <circle cx="150" cy="150" r="148" fill="none" stroke="#5a6070" stroke-width="2.5"/>
</svg>
